<svg id="Layer_1" data-name="Layer 1" xmlns="http://www.w3.org/2000/svg" xmlns:xlink="http://www.w3.org/1999/xlink" viewBox="0 0 800 500"><defs><style>.cls-1{fill:#fff;}.cls-2{fill:url(#linear-gradient);}.cls-3{fill:url(#linear-gradient-2);}.cls-4{fill:url(#linear-gradient-3);}.cls-5{fill:url(#linear-gradient-4);}.cls-6{fill:url(#linear-gradient-5);}.cls-7{fill:url(#linear-gradient-6);}.cls-8{fill:url(#linear-gradient-7);}.cls-9{fill:url(#linear-gradient-8);}.cls-10{fill:url(#linear-gradient-9);}.cls-11{fill:url(#linear-gradient-10);}.cls-12{fill:url(#linear-gradient-11);}.cls-13{fill:url(#linear-gradient-12);}.cls-14{fill:url(#linear-gradient-13);}.cls-15{fill:url(#linear-gradient-14);}.cls-16{fill:url(#linear-gradient-15);}.cls-17{fill:url(#linear-gradient-16);}.cls-18{fill:url(#linear-gradient-17);}.cls-19{fill:url(#linear-gradient-18);}.cls-20{fill:url(#linear-gradient-19);}</style><linearGradient id="linear-gradient" x1="7.87" y1="167.44" x2="796.92" y2="167.44" gradientUnits="userSpaceOnUse"><stop offset="0" stop-color="#1c83bd"/><stop offset="1" stop-color="#1d8fcf"/></linearGradient><linearGradient id="linear-gradient-2" x1="6.93" y1="267.85" x2="788.52" y2="267.85" xlink:href="#linear-gradient"/><linearGradient id="linear-gradient-3" x1="5.45" y1="269.34" x2="7.87" y2="269.34" xlink:href="#linear-gradient"/><linearGradient id="linear-gradient-4" x1="157.92" y1="466.99" x2="157.92" y2="280.1" gradientUnits="userSpaceOnUse"><stop offset="0" stop-color="#71cddd" stop-opacity="0"/><stop offset="1" stop-color="#66cef6"/></linearGradient><linearGradient id="linear-gradient-5" x1="219.09" y1="450.39" x2="219.09" y2="279.1" xlink:href="#linear-gradient-4"/><linearGradient id="linear-gradient-6" x1="280.26" y1="450.39" x2="280.26" y2="315.3" xlink:href="#linear-gradient-4"/><linearGradient id="linear-gradient-7" x1="280.26" y1="374.78" x2="280.26" y2="258.09" xlink:href="#linear-gradient-4"/><linearGradient id="linear-gradient-8" x1="341.43" y1="426.15" x2="341.43" y2="71.86" xlink:href="#linear-gradient-4"/><linearGradient id="linear-gradient-9" x1="402.6" y1="366.34" x2="402.6" y2="91.57" xlink:href="#linear-gradient-4"/><linearGradient id="linear-gradient-10" x1="384.4" y1="366.34" x2="384.4" y2="355.49" xlink:href="#linear-gradient-4"/><linearGradient id="linear-gradient-11" x1="463.77" y1="393.16" x2="463.77" y2="200.86" xlink:href="#linear-gradient-4"/><linearGradient id="linear-gradient-12" x1="524.93" y1="408.63" x2="524.93" y2="330" xlink:href="#linear-gradient-4"/><linearGradient id="linear-gradient-13" x1="586.1" y1="393.16" x2="586.1" y2="335.98" xlink:href="#linear-gradient-4"/><linearGradient id="linear-gradient-14" x1="648.27" y1="350.01" x2="648.27" y2="297.01" xlink:href="#linear-gradient-4"/><linearGradient id="linear-gradient-15" x1="709.32" y1="342.61" x2="709.32" y2="297.01" xlink:href="#linear-gradient-4"/><linearGradient id="linear-gradient-16" x1="96.75" y1="447.43" x2="96.75" y2="280.1" xlink:href="#linear-gradient-4"/><linearGradient id="linear-gradient-17" x1="108.46" y1="389.06" x2="108.46" y2="306.63" xlink:href="#linear-gradient-4"/><linearGradient id="linear-gradient-18" x1="35.7" y1="408.63" x2="35.7" y2="280.1" xlink:href="#linear-gradient-4"/><linearGradient id="linear-gradient-19" x1="765.06" y1="332.35" x2="765.06" y2="297.01" xlink:href="#linear-gradient-4"/></defs><title>Artboard 1</title><path class="cls-1" d="M12.77,273.87c0,138.62,134.65,152.28,351.59,152.28C470,376,636,334,780,284,780,145.38,622.52,22.87,405.58,22.87S12.77,135.24,12.77,273.87Z"/><path class="cls-2" d="M183.91,260.52l8.81-1.16c2.91-.4,5.75-.86,8.58-1.43a109.49,109.49,0,0,0,16.54-4.56,73.78,73.78,0,0,0,28.06-17.71c7.75-7.94,13.45-17.81,17.89-28.37s7.75-21.84,10.84-33.25l4.54-17.25,2.27-8.68L282,146l.49-2.06.91-4.24c2.33-11.51,4.38-23.41,7.06-35.22s5.74-23.68,10.37-35.4a86.22,86.22,0,0,1,9-17.3,44.23,44.23,0,0,1,7-8,28.38,28.38,0,0,1,10.31-5.95c.49-.17,1-.29,1.52-.42l.77-.18.71-.13c.93-.17,1.86-.33,2.82-.41a33.22,33.22,0,0,1,5.73-.09,37.93,37.93,0,0,1,10.82,2.52c6.67,2.66,12.06,6.46,17,10s9.48,7.2,14,9.72a31.72,31.72,0,0,0,3.3,1.65l.85.37,1.07.43,2.11.87c2.79,1.17,5.4,2.27,7.65,3a18,18,0,0,0,6.35.8,29,29,0,0,0,3.53-.39l1.89-.36q.29-.09.57-.15l.62-.2a28.67,28.67,0,0,0,6.09-3.43c2.24-1.54,4.59-3.35,7.15-5.17a65.67,65.67,0,0,1,8.6-5.33,35.46,35.46,0,0,1,5.28-2.13,26.13,26.13,0,0,1,6.06-1.15,24.12,24.12,0,0,1,6.4.39,15.41,15.41,0,0,1,1.56.36c.5.14,1,.26,1.51.44a25.77,25.77,0,0,1,3,1.2,29,29,0,0,1,9.29,7.59,59.38,59.38,0,0,1,5.8,8.47c1.64,2.85,3.05,5.71,4.38,8.58,2.61,5.75,4.82,11.52,6.81,17.31,4,11.59,7.25,23.21,10.35,34.84s6,23.25,8.77,34.87c5.62,23.22,11.12,46.38,17.49,69.18,3.2,11.39,6.67,22.67,10.65,33.67s8.5,21.78,14.39,31.35a55.36,55.36,0,0,0,10.16,12.53,43.49,43.49,0,0,0,6.43,4.48,21.63,21.63,0,0,0,6.58,2.6,9.08,9.08,0,0,0,5.58-.61,17.25,17.25,0,0,0,5.34-4.22c3.5-3.88,6.69-8.95,10.39-13.91a70.55,70.55,0,0,1,6.15-7.36,39,39,0,0,1,7.9-6.37,19.78,19.78,0,0,1,2.58-1.35c.53-.23,1-.35,1.45-.53l1.32-.36a47.3,47.3,0,0,1,4.88-.89c3.14-.42,6.2-.66,9.25-.84,6.08-.36,12.1-.48,18.11-.53s12,0,18,.09c12,.23,23.93.64,35.87,1.11s23.88,1,35.81,1.67l35.77,2q12.63.75,25.26,1.39c14.83-37.87,9.57-86.65-17.75-119.87-25-27.26-61.62-58.44-95.56-77.5C640.13,67.55,543.18,37.91,543.18,37.91c-47.32-17.72-105.47-20-174.94-18.3C258.12,22.24,184.7,40.09,136,74.5,46,138.05,13.54,189,7.87,269.26c47-1.56,94-1.54,140.59-5.23C160.32,263.11,172.14,262,183.91,260.52Z"/><path class="cls-3" d="M727.67,285.61c-23.88,0-47.75-.14-71.55.44-11.89.28-23.81.6-35.47,1.66-2.91.28-5.8.61-8.56,1.07-1.36.24-2.71.52-3.9.85l-.83.26c-.21.09-.49.18-.64.26a14.51,14.51,0,0,0-1.35.79c-4.19,2.7-7.67,6.91-10.92,11.61-1.63,2.35-3.22,4.83-4.91,7.37a75.82,75.82,0,0,1-5.71,7.69,27.5,27.5,0,0,1-8.55,6.89,19.06,19.06,0,0,1-5.87,1.79,20.8,20.8,0,0,1-6-.08,32.24,32.24,0,0,1-10.13-3.6,53.73,53.73,0,0,1-8.37-5.55,66.67,66.67,0,0,1-12.76-14.83c-6.89-10.64-11.85-21.9-16.3-33.24s-8.11-22.86-11.58-34.4c-6.93-23.07-12.68-46.33-18.6-69.44-3-11.55-5.88-23.08-9-34.51s-6.43-22.77-10.29-33.74c-1.94-5.48-4-10.87-6.35-16a63.14,63.14,0,0,0-8.07-13.64,14.75,14.75,0,0,0-4.39-3.76c-.25-.13-.73-.28-1.15-.45-.22-.08-.43-.11-.64-.17a3.72,3.72,0,0,0-.62-.15,9.17,9.17,0,0,0-2.51-.14,11.36,11.36,0,0,0-2.71.53,18.83,18.83,0,0,0-3,1.24,50.69,50.69,0,0,0-6.58,4.13C428,70.13,425.65,72,423,73.8A42,42,0,0,1,413.41,79c-.51.17-1,.34-1.51.49l-1.6.4-2.51.48a45.35,45.35,0,0,1-5.36.57,33,33,0,0,1-5.76-.23,36.17,36.17,0,0,1-5.56-1.22c-3.47-1.08-6.34-2.36-9.06-3.48l-2-.84-1-.41-1.2-.52a49.06,49.06,0,0,1-4.7-2.36c-5.91-3.4-10.73-7.28-15.41-10.74s-9.16-6.54-13.61-8.32a23.34,23.34,0,0,0-6.54-1.61,19.12,19.12,0,0,0-3.21,0,14.82,14.82,0,0,0-1.61.22l-.4.06-.31.08c-.21.06-.43.09-.64.17a14,14,0,0,0-5.07,3,29.48,29.48,0,0,0-4.76,5.4A75.37,75.37,0,0,0,314,74.46c-4.29,10.45-7.39,21.75-10.12,33.16s-5,23-7.56,34.89c-.34,1.49-.68,3-1,4.5l-.59,2.29-.62,2.25-2.41,8.6c-1.61,5.75-3.2,11.53-4.91,17.3-3.43,11.55-7.14,23.18-12.22,34.51a121.61,121.61,0,0,1-8.91,16.52,86.76,86.76,0,0,1-12,14.8,78.62,78.62,0,0,1-15.2,11.64,89.23,89.23,0,0,1-17.3,7.7A119.83,119.83,0,0,1,202.93,267c-3,.51-6.11.89-9.13,1.21l-9,.87c-12,1-24,1.85-35.94,2.3-47.15,1.69-94.1-.27-141-1.92-1.37,19.56-1.16,40.85.2,64.49.23,4.07,19.12,72.51,55.86,75.35,13,1,42.64,6.45,42.64,6.45,5.15,31.54,36.42,76.17,121.12,60.89,0,0,17.11,8.75,32.28,7.92,13.23,0,20.81-2.5,28.79-6.25C298,473.82,324.14,452,324.14,452l0,17.59c0,5.36,35.3,20.44,65.34,7.89,7.89-4.29,9.54-7.22,8.38-9.09,1.29-7.76-4.18-21.88,3.87-33.89,8.31-12.37,45.94-33.87,45.94-33.87,5.73-4,54.46,26.1,136.61,11.38,59.36-11.88,47.72-46,59.89-54.21l75.2-17c34.27-4,57.62-26.4,69.19-55.32C768.23,285.8,747.94,285.61,727.67,285.61ZM101,367a41.46,41.46,0,0,0,8.84,14.29,38.21,38.21,0,0,0,13.25,8.95,43.51,43.51,0,0,0,16.59,3.12,26.66,26.66,0,0,0,10.3-2.08,40.1,40.1,0,0,0,9.25-5.41,45.6,45.6,0,0,0,7.59-7.49,49.54,49.54,0,0,0,5.51-8.42l7.18,4.57a66,66,0,0,1-7.39,9.83,47.74,47.74,0,0,1-9.87,8.32,51.89,51.89,0,0,1-12.69,5.77,53.33,53.33,0,0,1-15.81,2.19,60.25,60.25,0,0,1-22.93-4.22A53.61,53.61,0,0,1,93.11,385a51,51,0,0,1-11.34-16.8,52.43,52.43,0,0,1,11.7-57.66,55.68,55.68,0,0,1,17.94-11.65,60.21,60.21,0,0,1,23.14-4.31,48.85,48.85,0,0,1,14.92,2.18,53.16,53.16,0,0,1,12.42,5.77,52.29,52.29,0,0,1,10,8.32,61.3,61.3,0,0,1,7.54,9.83l-7.39,4.89q-6.44-12.37-14.24-18a30,30,0,0,0-18.1-5.67A42.78,42.78,0,0,0,123.31,305,38.21,38.21,0,0,0,110,314.18,43.35,43.35,0,0,0,101,328.69,58,58,0,0,0,101,367ZM314,398.25H296.87V315.17h-.52l-41.6,83.08h-3.53l-42-82.46h-1.15v82.46h-7.59V296.87h17.47l39.41,77.78h.84l38.68-77.78H314Zm109.6,2.4h-3.95l-72-82.47h-.62v80.07h-7.7V296.87H349L415.42,371h.72V296.87h7.49Z"/><path class="cls-4" d="M5.45,269.34l2.41.08v-.16Z"/><path class="cls-5" d="M135,294.73a48.19,48.19,0,0,1,14,2.17,53,53,0,0,1,12.43,5.77,51.8,51.8,0,0,1,10,8.32,61.23,61.23,0,0,1,7.54,9.82l-7.38,4.89q-6.45-12.37-14.25-18A30,30,0,0,0,139.25,302c-1.45,0-2.87.07-4.27.2v91.13c1.37.12,2.75.18,4.16.18a26.48,26.48,0,0,0,10.3-2.08,40.1,40.1,0,0,0,9.25-5.41,45.54,45.54,0,0,0,7.59-7.48,49.6,49.6,0,0,0,5.51-8.43l7.18,4.58a67.11,67.11,0,0,1-7.38,9.83,48.33,48.33,0,0,1-9.88,8.31A51.26,51.26,0,0,1,135,400.75V467h45.87V280.1H135Z"/><polygon class="cls-6" points="207.57 315.93 207.57 398.39 199.97 398.39 199.97 297 217.44 297 242.02 345.51 242.02 279.1 196.15 279.1 196.15 450.39 242.02 450.39 242.02 381.31 208.71 315.93 207.57 315.93"/><polygon class="cls-7" points="296.37 315.3 295.85 315.3 257.32 392.26 257.32 450.39 303.19 450.39 303.19 398.39 296.37 398.39 296.37 315.3"/><polygon class="cls-8" points="296.37 297 303.19 297 303.19 258.09 257.32 258.09 257.32 374.78 257.69 374.78 296.37 297"/><polygon class="cls-9" points="346.6 318.32 346.6 398.39 338.9 398.39 338.9 297 348.47 297 364.36 314.73 364.36 71.86 318.49 71.86 318.49 426.15 364.36 426.15 364.36 337.96 347.22 318.32 346.6 318.32"/><polygon class="cls-10" points="379.66 331.8 410.62 366.34 415.64 366.34 415.64 297 423.13 297 423.13 366.34 425.53 366.34 425.53 91.57 379.66 91.57 379.66 331.8"/><polygon class="cls-11" points="379.66 366.34 389.13 366.34 379.66 355.49 379.66 366.34"/><rect class="cls-12" x="440.83" y="200.86" width="45.87" height="192.3"/><rect class="cls-13" x="502" y="330" width="45.87" height="78.63"/><rect class="cls-14" x="563.17" y="335.98" width="45.87" height="57.19"/><rect class="cls-15" x="625.34" y="297.01" width="45.87" height="53"/><rect class="cls-16" x="686.39" y="297.01" width="45.87" height="45.6"/><path class="cls-17" d="M92.61,385.13a51.05,51.05,0,0,1-11.34-16.79A52.46,52.46,0,0,1,93,310.67,55.82,55.82,0,0,1,110.91,299a54.24,54.24,0,0,1,8.77-2.76V280.1H73.81V410.58c14.12,1.93,32.25,5.27,32.25,5.27a72.8,72.8,0,0,0,13.62,31.58v-48a55.53,55.53,0,0,1-9.39-2.84A53.68,53.68,0,0,1,92.61,385.13Z"/><path class="cls-18" d="M109.45,314.31a43.61,43.61,0,0,0-8.94,14.51,58.19,58.19,0,0,0-.05,38.32,41.51,41.51,0,0,0,8.84,14.3,38,38,0,0,0,10.38,7.62V306.63A38.15,38.15,0,0,0,109.45,314.31Z"/><path class="cls-19" d="M12.77,351.52c7.43,20.32,22.8,51.59,45.87,57.11V280.1H12.77Z"/><path class="cls-20" d="M747.44,297v35.34c15.25-7.91,27-20.36,35.24-35.34Z"/></svg>
